<svg id="Capa_1" data-name="Capa 1" xmlns="http://www.w3.org/2000/svg" viewBox="0 0 525.83 521.83"><defs><style>.cls-1{fill:#21242a;}</style></defs><path class="cls-1" d="M919.63,201.9c79.63,1.22,146.48,30.34,199.48,89.07,31.73,35.16,52.48,76.69,60.57,123.48,11.88,68.66,1,133.48-38.68,191.76C1098.65,668.36,1040.47,707,965.87,719.63c-77.41,13.14-147.16-5.42-208.61-53.42-52.69-41.16-85.09-95.65-95.35-161.71C649.4,424,670.43,352.21,724.2,290.84c39.54-45.11,89.58-72.59,148.43-84.13A266.83,266.83,0,0,1,919.63,201.9ZM801.56,614.42l-1.73-2.16c1-9.66,5.49-18.31,8.26-27.46q5.68-13.9,11.36-27.82c-5.65,8.67-9.44,18.13-13,27.69-2.63,7.15-5.38,14.25-7.82,21.45-.74,2.19-2.07,4.75.31,7,.51.72,1,1.43,1.54,2.14,2.11,2.32,4.11,4.75,6.81,6.45,2.59,4.25,9.82,5.73,7.36,13.29,3.71-2.58,5.05-4.87,1.22-7.92-2.57-2-5-4.28-7.48-6.43Zm97.7,30.25c-3.73-3.79-7.39-7.67-11.24-11.34-2.34-2.24-2.29-4,.12-6.11,3.86-3.41,7.58-7,11.34-10.5,2.69-2.52,3.64-5.58,2.4-9.07-6.55-18.34-14.11-36.2-25.43-52.21-.69-1-1.29-2.53-2.93-1.52a307,307,0,0,1,25.3,50.73c1.92,5,.8,9-3.18,12.47-3.76,3.28-7.33,6.78-11.08,10.07-2.16,1.9-1.95,3.51,0,5.36,4.6,4.33,9.13,8.73,13.69,13.1,2.33,3,5.17,5.67,6.53,10.3C906.52,649.58,902.29,647.46,899.26,644.67ZM786.56,480.72a95.32,95.32,0,0,0,11.51,33.65c5.34,9.21,5.36,9.2-4.79,12.88a5.77,5.77,0,0,1-1.55.09c-.67-4.82-1.3-9.59-2-14.34-.4-2.79-1.75-3.9-4.81-3.39a98.78,98.78,0,0,1-12.4,1.07c-6.19.23-6.25.12-4.9-6.07q1.71-7.78,3.67-15.51c.74-3-.25-4.58-3.2-5.51-6.64-2.1-13.18-4.51-19.82-6.63-3.55-1.13-3.68-2.78-1.27-5.21,5.28-5.32,10.3-10.93,15.9-15.87,3.53-3.11,2.67-5.3.11-8.09-6.32-6.87-13.65-12-22.91-14.19-3.46-.82-7.13-1.09-10.25-2.94.43-1.49,1.61-1.92,2.53-2.59,8-5.9,16.16-11.66,24.09-17.69,5.42-4.12,5.44-5.19,2-11.15-4.9-8.62-11.74-15.64-18.64-22.63-1.76-1.78-3.89-3.38-5.08-6.56,14.19-1.16,27.73-2.32,41.28-3.36,6-.46,6.28-.73,5.54-7-1.15-9.69-4.75-18.58-8.85-27.31-.6-1.27-2.13-2.79-1-4s2.78-.25,4.25.06c9.48,2,18.35,5.77,27,9.95,3.93,1.89,6,1.14,7.43-3a121.66,121.66,0,0,0,5-18.23c1.18-6.55,2.14-13.14,3.22-19.92a15.63,15.63,0,0,1,4.65,3.84c7.65,7.91,14.32,16.61,21.07,25.26,4.06,5.19,4.22,5.12,8.64.3a115.19,115.19,0,0,1,36.38-26.54c0,6.64-.23,12.76.06,18.86s.9,12.27,1.69,18.36c1.54,11.93,1.69,11.87,13.26,8.1,8.64-2.81,16.89-6.81,25.82-8.75l.28.32c-.6,1.35-1.11,2.76-1.83,4q-8.5,15.15-17.1,30.25c-1.9,3.31-1.38,5.05,2.69,5.5,4.78.53,9.54,1.29,14.28,2.12,6,1.07,12.25,1.34,16.9,2.94-7.75,8.27-15.57,16.68-23.47,25-4.12,4.34-4.1,4.58,1.35,6.86,8.71,3.66,17.39,7.37,26.62,11.29-1.84,1.21-2.95,1.93-4,2.67-10.69,7.21-22.48,12-34.66,16-3.38,1.1-4.11,2.54-1.15,5,1.16.95,2.27,1.95,3.43,2.89,5.65,4.63,12.5,7.39,18.43,11.59-.69,1.47-1.93,1.92-3.1,2.55A115,115,0,0,1,914,472.46c-7.27,2.68-7.27,2.71-4.71,10.15q1.29,3.75,2.67,7.49c.9,2.43.32,3.72-2.49,3.91a76.39,76.39,0,0,0-8.39,1.09c-5.07.93-5.88,2.56-3.2,7.07,1.85,3.11,4.15,6,6.34,9.06-3.55,2.26-7.48,3.06-11.2,4.35-3.33,1.14-6.38,2.55-8.5,5.67a29.73,29.73,0,0,1-14.8,11.28c-5.78,2.11-7.21,7.19-3.58,12.21,1.45,2,3.19,3.77,4.81,5.61l.74-.56c-.09,0-.25-.1-.28-.07-.17.21-.32.45-.47.67,1.14-1.13.09-2.49.37-3.71l.37-.28c10,2.79,20,5.7,30.11,8.32,3.6.93,5.38,2.8,6.47,6.43,10.7,35.55,20.43,71.34,28.79,107.51.35,1.51.09,3.28,2.27,4.18,2.16-5.6,2.32-11.44,2.8-17.13,1.35-15.69,6.77-29.93,14.63-43.36,1.23-2.1,2.33-4.17,5.75-2.62,8.48,3.82,17.6,5.43,26.75,6.73,7.38,1,14.76,2,22.2.7a107.93,107.93,0,0,0-22.12-1.62c-2.45-1.75-5.43-2.09-8.21-2.91-21-6.28-38.36-17.19-48.1-37.83-.6-1.28-1-3.23-3.37-2.87.5,1.68,1,3.2,1.42,4.73.73,2.57-.29,3.31-2.8,2.86-11.25-2-17.11-15.1-10-23.7,3.75-4.51,3.77-7.91.7-12.21-1-1.34-1.6-2.9-2.51-4.29a22.45,22.45,0,0,1-2.57-20.45c2.25-6.76,5.08-13.58,5-20.71-.08-6.84,2.34-12.22,6.23-17.36,1.9-2.52,3.7-5.12,5.65-7.6,9.09-11.55,18.77-22.44,32.49-28.81,11.17-5.18,23-7.48,35.2-8.3,27.58-1.85,50.5,7.78,68.24,28.88,7.71,9.16,15.17,19.42,17,31.17,2.59,16.73,6.15,33.89.35,50.85a6.74,6.74,0,0,0,1,6.49c6.47,9.76,3.35,19.95-7.47,24.72-2.15.95-4.53,1.61-5.88,3.56a96.09,96.09,0,0,1-22.21,22.69c-2.87,2.1-1.93,4.24-.26,6.33,6.48,8.12,9.56,17.69,12,27.56.66,2.63,1.69,5.17,3,9.09,0-2.95.27-4.5,0-5.92-1.24-5.42,1.4-8.92,5.12-12.45,7.13-6.76,14.15-13.63,20.63-21,33.77-38.7,53.25-83.31,55.22-134.93.83-21.61.67-43.18-4.46-64.5-12.28-50.93-38.51-93-79.51-125.52-53.59-42.42-114.65-57.22-181.74-45.66C826,246.62,781.83,273,747,314.47c-43,51.29-58.62,111-50.3,176.72,5.39,42.57,23.19,80.3,50.55,113.56,5.47,6.65,14.6,11.18,14,22.33a10.38,10.38,0,0,0,2.42-5c5.93-20,11.95-40,17.68-60.11,1.1-3.84,3.11-5.66,6.79-6.82,12-3.78,24-8,36-11.83,2.13-.69,3-1.62,3.66-3.89,1.62-5.46-2.1-6.64-5.64-8-12-4.58-19.9-13.1-24.86-24.89-3.55-8.44-6.17-17.16-9.15-25.78l-4-24.6C782.85,464.61,784.63,472.67,786.56,480.72Z" transform="translate(-658.4 -201.9)"/></svg>